<?xml version="1.0" standalone="no"?>
<!DOCTYPE svg PUBLIC "-//W3C//DTD SVG 20010904//EN"
 "http://www.w3.org/TR/2001/REC-SVG-20010904/DTD/svg10.dtd">
<svg version="1.0" xmlns="http://www.w3.org/2000/svg"
 width="512.000000pt" height="512.000000pt" viewBox="0 0 512.000000 512.000000"
 preserveAspectRatio="xMidYMid meet">
<metadata>
Created by potrace 1.11, written by Peter Selinger 2001-2013
</metadata>
<g transform="translate(0.000000,512.000000) scale(0.100000,-0.100000)"
fill="#000000" stroke="none">
<path d="M2186 4986 c5 -12 2 -15 -10 -10 -12 5 -16 0 -16 -24 0 -27 -4 -30
-41 -36 -23 -4 -44 -4 -47 -1 -3 3 0 5 6 5 24 0 12 40 -14 46 -21 5 -31 0 -54
-25 -29 -31 -50 -40 -50 -21 0 18 -18 10 -23 -10 -3 -11 -13 -22 -24 -26 -31
-10 -48 -22 -46 -33 4 -17 -34 -32 -95 -35 -31 -2 -64 -7 -73 -10 -9 -4 -21 0
-28 8 -10 12 -16 12 -39 0 -15 -8 -39 -14 -53 -14 -27 0 -54 -22 -42 -33 3 -4
0 -14 -8 -24 -10 -13 -3 -11 26 7 22 13 34 17 28 10 -24 -26 -13 -32 17 -10
16 12 27 15 24 8 -6 -15 -86 -68 -103 -68 -6 0 -11 4 -11 8 0 5 -6 16 -13 26
-13 18 -15 17 -53 -2 -22 -11 -47 -28 -55 -38 -8 -10 -32 -30 -53 -46 -21 -15
-33 -28 -25 -28 7 0 -3 -11 -22 -24 -24 -16 -44 -23 -58 -19 -24 6 -81 -39
-81 -64 0 -7 -9 -13 -19 -13 -39 0 -54 -14 -82 -78 -25 -55 -31 -63 -45 -52
-8 7 -13 19 -10 26 11 29 -22 0 -43 -37 -13 -22 -29 -43 -36 -46 -8 -2 -12
-10 -9 -18 3 -7 -2 -19 -10 -28 -9 -9 -16 -22 -16 -31 0 -8 -9 -17 -19 -21
-11 -3 -52 -42 -91 -85 -40 -44 -77 -80 -84 -80 -7 0 -29 -30 -50 -66 -22 -36
-48 -74 -59 -84 -15 -15 -18 -26 -13 -53 5 -26 2 -38 -13 -51 -17 -16 -19 -16
-24 5 -7 28 -29 20 -45 -17 -26 -59 -37 -78 -46 -75 -5 2 -13 -4 -18 -13 -12
-22 -44 -155 -59 -249 -10 -68 -14 -77 -30 -72 -22 7 -26 -10 -4 -19 32 -12
15 -46 -38 -77 -16 -9 -17 -7 -11 17 5 19 4 25 -5 20 -6 -4 -11 -19 -11 -33 0
-15 -7 -34 -16 -44 -14 -15 -15 -30 -5 -115 6 -60 7 -104 1 -114 -5 -10 -6
-20 -3 -24 4 -4 -3 -9 -16 -13 -21 -5 -22 -9 -16 -67 3 -33 8 -70 11 -81 2
-11 -3 -6 -11 10 -8 17 -14 39 -15 50 0 11 -5 27 -10 35 -7 11 -10 -1 -10 -40
0 -32 4 -50 8 -42 6 9 12 0 20 -26 17 -56 16 -112 -2 -112 -18 0 -24 -16 -36
-114 -5 -43 -14 -84 -19 -90 -6 -6 -6 -29 -1 -56 5 -25 9 -91 10 -146 0 -122
8 -167 26 -160 7 3 16 -4 19 -15 4 -10 12 -19 20 -19 7 0 16 -7 19 -16 5 -13
1 -14 -24 -9 -36 8 -39 -7 -5 -25 19 -10 25 -22 25 -45 0 -38 -8 -49 -27 -34
-10 9 -13 6 -13 -13 0 -13 -5 -29 -11 -35 -7 -7 -3 -18 15 -38 20 -22 26 -24
26 -11 0 10 5 14 10 11 6 -3 9 -39 8 -78 -1 -63 3 -80 32 -140 18 -37 46 -79
63 -93 23 -19 27 -28 17 -34 -17 -10 3 -44 94 -164 36 -47 69 -98 72 -114 4
-15 15 -35 26 -45 10 -10 16 -22 13 -27 -3 -5 6 -17 20 -26 18 -12 24 -22 19
-36 -7 -25 48 -79 131 -129 48 -29 59 -40 57 -58 -3 -34 56 -138 102 -177 22
-19 85 -57 140 -85 71 -36 115 -66 146 -100 49 -53 273 -205 278 -189 2 6 12
10 21 10 29 0 81 -21 76 -31 -11 -17 14 -46 56 -64 41 -19 41 -19 59 2 l17 22
23 -24 c16 -17 18 -24 8 -28 -7 -2 -5 -3 5 -1 10 1 36 -3 56 -11 21 -7 76 -21
122 -30 46 -9 99 -25 117 -36 18 -10 51 -19 72 -19 21 0 40 -5 42 -11 5 -14
110 -39 166 -39 26 0 41 -4 37 -10 -15 -24 35 -7 71 25 45 40 54 42 61 16 4
-16 18 -21 71 -27 68 -7 90 -8 263 -6 73 1 99 5 109 17 7 8 22 15 34 15 11 0
41 9 65 20 23 11 47 17 53 14 5 -3 16 3 24 15 18 25 64 50 81 44 6 -2 23 3 37
13 16 10 26 12 26 5 0 -19 19 -12 52 20 27 26 39 30 76 28 33 -2 46 1 53 14 7
12 17 15 34 11 13 -3 32 -1 43 5 25 13 72 -2 72 -23 0 -8 24 10 54 40 30 30
63 54 74 54 11 0 33 7 48 15 16 8 37 15 47 15 33 0 76 38 70 61 -4 14 -12 19
-24 16 -20 -5 -23 1 -13 27 5 13 22 16 79 16 l72 0 71 74 c43 45 73 86 77 105
4 17 13 31 20 31 9 0 12 -7 9 -17 -3 -10 13 2 35 27 23 25 44 54 47 66 4 14
12 20 27 19 56 -5 110 55 167 188 21 49 49 94 75 120 79 81 114 137 229 377
36 74 77 155 91 180 19 33 23 53 19 77 -5 25 -3 33 8 33 13 0 14 7 5 45 -10
42 -8 48 27 105 21 33 41 74 46 90 10 33 2 73 -12 64 -9 -6 -7 17 8 98 3 16 9
28 14 28 4 0 3 21 -1 47 -11 56 -4 83 20 83 44 0 53 49 21 118 -20 44 -34 53
-44 26 -3 -8 -10 -12 -16 -9 -6 4 -8 11 -5 16 4 5 1 9 -4 9 -7 0 -11 33 -11
89 0 50 -7 143 -16 208 -18 134 -24 264 -12 257 14 -9 9 25 -9 59 -9 18 -19
46 -22 62 -4 18 -16 34 -29 40 -29 13 -38 42 -18 64 20 22 20 31 1 31 -8 0
-15 7 -15 15 0 8 -6 15 -12 15 -15 0 -53 114 -43 129 3 6 2 11 -4 11 -5 0 -12
-6 -15 -12 -3 -7 -4 -4 -1 8 3 12 -3 31 -15 47 -24 30 -25 38 -5 31 9 -4 15 0
15 9 0 8 -6 17 -14 20 -14 6 -39 95 -30 109 3 4 -5 8 -18 8 -17 0 -34 13 -56
45 -18 25 -32 49 -32 53 0 17 -76 152 -85 152 -6 0 -26 16 -45 35 -31 32 -32
35 -12 35 19 0 21 2 10 19 -7 11 -14 19 -17 19 -23 -2 -32 4 -27 17 3 10 -13
28 -50 56 -30 22 -58 47 -61 55 -8 22 -22 17 -34 -12 -10 -27 -21 -26 -25 1
-1 8 2 15 7 15 6 0 7 5 4 10 -4 6 -11 8 -16 5 -5 -4 -9 1 -9 10 0 9 5 13 10
10 6 -4 2 9 -7 27 -11 22 -25 34 -37 34 -15 -1 -22 7 -26 29 -4 23 -12 32 -37
40 -18 5 -33 14 -33 20 0 18 -78 56 -102 50 -17 -4 -40 8 -93 50 -38 30 -83
62 -100 71 -16 9 -34 22 -41 28 -9 10 -80 36 -142 52 -8 2 -16 13 -19 24 -3
12 -14 20 -27 20 -26 0 -71 29 -46 30 24 0 -42 40 -67 40 -13 0 -23 4 -23 10
0 5 -14 17 -31 26 -28 14 -31 14 -26 1 5 -13 2 -14 -16 -8 -14 6 -21 16 -20
29 1 11 -5 23 -15 28 -26 11 -226 22 -233 12 -3 -5 -32 10 -65 32 -63 43 -85
47 -124 25 -14 -8 -35 -14 -48 -15 -12 0 -21 -3 -21 -7 6 -34 -28 -49 -60 -26
-27 18 -28 47 -2 40 10 -2 24 -1 31 3 7 4 -3 10 -27 15 -21 4 -44 11 -50 17
-9 7 -18 7 -28 -2 -10 -8 -36 -11 -74 -8 -33 2 -58 1 -55 -4 3 -4 -10 -8 -29
-8 -19 0 -40 -7 -47 -15 -16 -19 -39 -19 -46 0 -4 10 -13 13 -25 10 -25 -8
-43 3 -30 18 7 9 -4 12 -42 12 -29 0 -67 4 -84 8 -28 7 -32 6 -27 -7z m-656
-906 c8 0 32 2 53 6 47 8 147 -19 197 -52 19 -13 48 -24 65 -24 17 0 35 -4 41
-10 5 -5 32 -13 59 -16 28 -4 54 -13 58 -21 4 -7 19 -13 33 -13 14 0 77 -31
140 -69 63 -38 127 -72 143 -76 22 -5 31 -14 40 -44 13 -44 28 -59 67 -70 22
-5 31 -18 45 -57 23 -66 23 -96 -1 -117 -11 -9 -20 -29 -20 -43 0 -15 -11 -52
-24 -83 -30 -70 -56 -160 -56 -192 0 -15 -14 -36 -40 -59 -22 -19 -53 -58 -68
-87 -41 -79 -195 -302 -212 -308 -8 -3 -23 -18 -32 -35 -16 -28 -58 -43 -58
-20 0 6 4 10 10 10 5 0 17 17 25 37 9 21 19 40 23 43 10 7 62 88 62 96 0 10
-231 -214 -274 -265 -21 -25 -46 -46 -55 -46 -9 -1 -27 -8 -40 -17 -41 -29
-41 -10 0 31 21 21 39 47 39 57 0 16 -3 16 -20 -6 -11 -14 -20 -21 -20 -16 0
5 -8 2 -18 -7 -10 -10 -27 -14 -39 -11 -14 4 -27 -1 -38 -14 -10 -11 -25 -17
-35 -15 -35 9 -44 -32 -48 -212 -1 -93 1 -285 7 -425 5 -140 11 -313 14 -385
3 -71 7 -137 10 -145 8 -24 17 -72 21 -115 16 -191 18 -255 9 -255 -16 0 -23
26 -23 84 0 75 -17 159 -36 172 -10 8 -13 20 -8 38 4 17 2 26 -6 26 -8 0 -11
15 -8 45 2 25 -1 45 -6 45 -5 0 -6 37 -4 85 4 54 2 85 -4 85 -7 0 -8 30 -3 86
5 62 4 84 -4 80 -6 -4 -11 -31 -11 -60 0 -29 -5 -68 -11 -85 -18 -51 -33 -22
-29 56 8 157 -4 313 -28 360 -15 29 -15 37 -2 65 17 40 16 124 -2 145 -9 11
-13 49 -14 117 -1 159 3 152 -117 162 -91 8 -102 11 -105 29 -4 32 32 49 74
35 21 -7 54 -9 79 -5 l44 6 -5 122 c-3 67 -11 167 -20 222 -8 55 -17 144 -21
198 -3 54 -10 100 -15 103 -4 3 -8 23 -8 45 0 21 -4 47 -9 57 -20 38 -40 132
-49 225 -11 125 -20 136 -90 113 -48 -16 -112 -71 -139 -121 -9 -16 -13 -17
-27 -6 -9 7 -16 23 -16 35 0 24 46 96 61 96 6 0 8 11 5 28 -5 20 -2 30 12 37
38 20 122 87 122 97 0 6 -10 8 -22 4 -65 -19 -72 -17 -94 17 l-21 33 151 72
c210 101 244 113 291 107 22 -3 47 -5 55 -5z m2326 -16 c9 -14 19 -51 21 -82
6 -73 6 -73 -5 -160 -6 -41 -8 -90 -5 -110 3 -21 -2 -75 -11 -121 -9 -46 -16
-100 -16 -122 0 -21 -4 -40 -9 -44 -6 -3 -6 -17 -1 -35 4 -16 5 -59 0 -97 -5
-37 -11 -120 -15 -183 -3 -63 -8 -129 -11 -147 -4 -28 -1 -32 29 -42 18 -6 60
-15 92 -19 43 -5 60 -11 60 -22 0 -8 -6 -14 -14 -12 -7 1 -22 0 -33 -4 -17 -5
-15 -10 21 -43 23 -21 41 -45 41 -54 0 -16 31 -28 113 -43 22 -3 36 -11 34
-18 -7 -19 -126 -6 -225 25 -145 46 -132 64 -132 -182 0 -121 -4 -218 -10
-229 -7 -13 -7 -21 0 -25 12 -8 10 -504 -2 -511 -11 -7 -10 -44 0 -44 13 0 4
-254 -9 -258 -6 -3 -7 6 -3 23 4 16 2 30 -4 34 -12 7 -19 107 -9 117 12 13 7
34 -8 34 -14 0 -16 -7 -19 -74 -1 -11 -7 -21 -14 -24 -8 -2 -12 12 -12 48 0
35 -4 49 -11 44 -7 -4 -9 1 -5 15 3 11 9 30 12 41 3 12 1 27 -5 34 -13 15 -30
376 -18 383 5 3 6 16 3 29 -4 16 -2 24 6 24 9 0 8 3 -2 10 -13 9 -13 11 -1 19
12 8 12 13 3 24 -7 8 -11 23 -10 33 1 11 -4 45 -12 77 -10 46 -11 63 -2 78 8
12 9 26 2 43 -6 17 -5 26 3 30 8 3 7 9 -5 19 -15 12 -16 19 -6 51 9 27 9 39 0
48 -8 8 -8 17 -1 30 13 23 1 88 -17 95 -32 12 -479 -25 -576 -48 -51 -12 -84
-40 -75 -63 4 -9 2 -18 -3 -21 -6 -4 -10 -24 -10 -45 0 -21 -4 -41 -10 -45 -6
-3 -6 -15 0 -30 5 -13 11 -79 14 -147 l6 -123 -22 40 c-21 39 -21 39 -30 15
-5 -14 -8 -40 -6 -57 3 -21 0 -33 -8 -33 -14 0 -6 -50 12 -67 22 -22 47 -4 40
28 -6 32 9 40 19 10 9 -29 -4 -69 -26 -74 -15 -4 -19 -14 -18 -44 0 -21 4 -47
8 -58 7 -16 10 -10 16 28 11 74 25 66 25 -16 0 -41 3 -130 6 -198 5 -87 3
-121 -4 -114 -6 6 -12 24 -15 40 -2 19 -5 11 -6 -22 0 -28 -5 -54 -10 -57 -13
-8 -25 57 -27 149 -1 44 -3 91 -5 104 -6 37 17 36 25 0 3 -18 9 -30 12 -27 3
3 2 22 -1 42 -5 26 -12 36 -26 36 -11 0 -19 7 -19 16 0 8 -7 22 -15 30 -21 22
-20 71 3 77 13 4 13 5 -4 6 -16 1 -23 -6 -27 -26 -5 -28 -1 -270 7 -390 3 -52
1 -63 -11 -63 -9 0 -13 6 -10 14 3 8 -1 20 -9 27 -8 7 -11 15 -6 18 11 7 -4
187 -18 219 -5 12 -7 49 -3 82 3 33 1 78 -5 102 -9 35 -18 145 -22 273 0 19
-2 18 -19 -4 -18 -24 -45 -22 -35 2 8 21 20 187 14 187 -3 0 -25 -19 -47 -42
-49 -50 -102 -157 -111 -224 -9 -59 -27 -66 -46 -20 -14 33 -36 49 -36 26 0
-5 -7 -10 -15 -10 -8 0 -25 -21 -37 -47 -13 -25 -27 -45 -33 -44 -12 2 -7 85
6 89 5 2 9 10 9 17 0 7 6 15 14 18 7 3 16 20 19 39 3 18 9 47 12 64 8 35 -17
84 -41 84 -9 0 -14 12 -14 35 0 19 5 35 10 35 6 0 10 5 10 12 0 7 -25 -12 -55
-42 -46 -45 -57 -52 -65 -40 -5 8 -10 20 -10 25 0 16 44 95 53 95 5 0 28 16
51 35 24 19 47 35 51 35 4 0 29 20 54 44 26 23 92 66 147 94 l99 51 1 43 c1
24 -7 88 -18 142 -10 54 -18 125 -17 157 1 32 -3 64 -9 72 -6 7 -9 23 -5 35 3
12 0 28 -6 36 -6 7 -8 27 -5 44 4 21 1 40 -10 57 -10 15 -16 45 -16 79 0 30
-4 57 -9 60 -4 3 -11 38 -14 78 -8 104 -30 159 -83 206 -58 54 -58 75 3 96 26
9 54 16 63 16 23 0 53 -35 87 -103 35 -69 44 -65 69 33 17 66 36 91 89 115 21
9 35 10 49 3 16 -9 18 -19 13 -101 -3 -51 -10 -137 -16 -192 -10 -96 -17 -467
-13 -702 l2 -112 33 11 c17 5 77 11 132 11 93 2 106 5 181 39 63 30 89 37 114
32 21 -5 35 -3 40 6 7 11 59 19 183 29 12 1 8 190 -5 214 -7 12 -13 36 -15 52
-2 17 -8 71 -14 120 -6 50 -12 140 -13 200 -2 61 -8 123 -15 138 -6 16 -9 33
-5 38 3 5 -4 25 -16 44 -24 39 -21 49 20 70 36 19 57 52 41 68 -17 17 -13 25
19 42 l30 15 25 -50 c23 -45 29 -51 53 -48 25 3 27 7 30 53 3 54 20 75 59 75
13 0 29 -10 39 -26z m-868 -2415 c-7 -5 -8 -9 -3 -9 6 0 10 -44 10 -110 0 -61
-3 -110 -7 -110 -5 0 -8 13 -8 29 0 17 -4 33 -10 36 -13 8 -13 81 0 106 7 12
7 25 1 36 -6 12 -4 24 7 42 15 22 17 23 20 7 2 -10 -2 -22 -10 -27z m-108 -96
c-15 -32 -25 -16 -15 24 4 19 9 23 17 15 9 -9 8 -19 -2 -39z m844 -34 c10 -52
7 -337 -4 -344 -12 -8 -13 -1 -15 208 -2 157 5 206 19 136z m65 -71 c5 -13 5
-32 1 -43 -4 -11 -6 -41 -4 -67 2 -32 -1 -48 -9 -48 -7 0 -6 -4 2 -9 18 -12
29 -137 13 -153 -19 -19 -31 61 -31 205 -1 133 8 168 28 115z m-789 -113 c0
-14 -4 -25 -10 -25 -5 0 -10 11 -10 25 0 14 5 25 10 25 6 0 10 -11 10 -25z
m792 -280 c-2 -14 -9 -25 -14 -25 -6 0 -7 7 -4 16 3 9 6 22 6 30 0 9 4 13 9
10 4 -3 6 -17 3 -31z m-193 -659 c-2 -2 -22 -11 -44 -20 l-40 -16 25 20 c14
11 34 20 44 20 11 0 17 -2 15 -4z"/>
<path d="M1630 3970 c14 -4 39 -8 55 -9 23 0 26 2 15 9 -8 5 -33 9 -55 9 -35
-1 -37 -2 -15 -9z"/>
<path d="M1295 3900 c-3 -6 1 -7 9 -4 18 7 21 14 7 14 -6 0 -13 -4 -16 -10z"/>
<path d="M1498 3823 c6 -2 18 -2 25 0 6 3 1 5 -13 5 -14 0 -19 -2 -12 -5z"/>
<path d="M1770 3800 c-14 -4 -53 -8 -87 -9 -35 -1 -63 -2 -63 -3 0 -2 -11 -79
-25 -173 -16 -112 -25 -214 -25 -301 0 -72 -4 -155 -9 -185 -6 -30 -13 -157
-16 -283 l-6 -229 43 7 c24 4 50 7 58 7 29 1 59 22 65 47 3 13 30 50 59 81 30
31 61 72 71 91 10 19 59 85 110 145 50 61 112 137 137 170 25 33 56 69 68 80
42 37 80 98 80 127 0 16 4 37 9 46 12 24 -6 217 -24 252 -17 32 -57 50 -244
105 -119 35 -155 40 -201 25z"/>
<path d="M1457 3753 c-12 -12 -6 -126 13 -233 16 -92 18 -98 18 -50 0 30 3
108 7 173 8 113 7 117 -12 117 -11 0 -23 -3 -26 -7z"/>
<path d="M1516 3484 c-3 -26 -4 -49 -2 -52 3 -2 8 17 11 43 4 25 5 48 3 51 -3
2 -8 -17 -12 -42z"/>
<path d="M2068 3052 c-19 -20 -46 -56 -60 -79 -13 -23 -63 -85 -111 -138 -48
-52 -96 -114 -108 -138 l-21 -42 32 30 c18 17 39 44 46 62 8 17 23 34 34 38
11 4 52 54 91 112 39 57 87 122 106 144 46 51 38 61 -9 11z"/>
<path d="M3720 3737 c0 -37 4 -67 10 -67 9 0 3 118 -6 129 -2 2 -4 -26 -4 -62z"/>
<path d="M2730 3663 c0 -16 4 -33 9 -38 9 -10 21 -95 21 -152 0 -17 4 -42 10
-55 7 -16 8 10 6 87 -2 68 -8 111 -15 113 -6 2 -11 17 -11 32 0 16 -4 32 -10
35 -6 4 -10 -6 -10 -22z"/>
<path d="M3651 3676 c-13 -15 -5 -86 8 -86 4 0 13 10 20 23 10 18 9 28 -2 50
-12 23 -16 25 -26 13z"/>
<path d="M3680 3310 c0 -92 9 -111 29 -62 9 22 9 35 -4 67 -9 21 -15 49 -12
62 2 13 0 23 -4 23 -5 0 -9 -40 -9 -90z"/>
<path d="M3692 3110 c0 -14 2 -19 5 -12 2 6 2 18 0 25 -3 6 -5 1 -5 -13z"/>
<path d="M3452 3003 c-35 -8 -62 -16 -60 -17 2 -1 54 0 116 2 88 3 112 7 112
18 0 19 -83 17 -168 -3z"/>
<path d="M3841 2827 c2 -1 13 -9 24 -17 19 -14 19 -14 6 3 -7 9 -18 17 -24 17
-6 0 -8 -1 -6 -3z"/>
<path d="M2757 2746 c-3 -8 -3 -17 0 -20 7 -7 33 13 33 25 0 15 -27 10 -33 -5z"/>
<path d="M2683 2668 c-6 -7 -16 -24 -23 -38 -11 -22 -8 -20 24 9 20 19 36 36
36 38 0 9 -29 1 -37 -9z"/>
<path d="M2470 2600 c0 -5 4 -10 9 -10 6 0 13 5 16 10 3 6 -1 10 -9 10 -9 0
-16 -4 -16 -10z"/>
<path d="M2890 2536 c0 -38 12 -53 28 -33 11 13 0 51 -17 62 -7 4 -11 -7 -11
-29z"/>
<path d="M3697 2513 c-4 -3 -7 -36 -7 -72 1 -79 15 -64 22 22 4 53 1 66 -15
50z"/>
<path d="M2901 2451 c-1 -27 2 -32 11 -23 8 8 8 17 0 34 -10 22 -11 21 -11
-11z"/>
<path d="M2790 2424 c0 -22 2 -24 14 -14 8 6 12 18 9 26 -9 23 -23 16 -23 -12z"/>
<path d="M3709 2210 c-4 -102 -4 -103 -16 -107 -8 -3 -5 -11 8 -24 26 -26 27
-99 2 -99 -13 0 -15 -3 -5 -8 20 -14 34 -72 17 -78 -7 -3 -16 -12 -19 -21 -4
-10 -2 -13 8 -10 9 4 17 -2 21 -14 4 -10 11 -17 16 -13 5 3 6 10 3 16 -4 6 -7
94 -9 197 -1 118 -6 194 -13 206 -9 17 -12 9 -13 -45z"/>
<path d="M2870 2178 c0 -19 2 -20 10 -8 13 19 13 30 0 30 -5 0 -10 -10 -10
-22z"/>
<path d="M2881 2134 c0 -11 3 -14 6 -6 3 7 2 16 -1 19 -3 4 -6 -2 -5 -13z"/>
<path d="M2965 1810 c3 -5 8 -10 11 -10 2 0 4 5 4 10 0 6 -5 10 -11 10 -5 0
-7 -4 -4 -10z"/>
<path d="M3010 4932 c0 -12 19 -26 26 -19 2 2 -2 10 -11 17 -9 8 -15 8 -15 2z"/>
<path d="M3530 4749 c0 -5 5 -7 10 -4 6 3 10 8 10 11 0 2 -4 4 -10 4 -5 0 -10
-5 -10 -11z"/>
<path d="M690 4100 c0 -5 7 -10 15 -10 8 0 15 5 15 10 0 6 -7 10 -15 10 -8 0
-15 -4 -15 -10z"/>
<path d="M4660 3696 c0 -9 5 -16 10 -16 6 0 10 4 10 9 0 6 -4 13 -10 16 -5 3
-10 -1 -10 -9z"/>
<path d="M4744 3467 c3 -10 6 -25 6 -33 0 -12 4 -12 20 -2 21 14 21 35 0 30
-7 -2 -17 3 -23 10 -6 9 -7 8 -3 -5z"/>
<path d="M201 3042 c-6 -12 -11 -27 -11 -34 1 -7 8 0 16 15 9 16 13 31 11 34
-3 2 -10 -4 -16 -15z"/>
</g>
</svg>
